<?xml version="1.0" encoding="UTF-8"?>
<svg id="Layer_1" xmlns="http://www.w3.org/2000/svg" version="1.1" viewBox="0 0 512 512">
  <!-- Generator: Adobe Illustrator 30.5.1, SVG Export Plug-In . SVG Version: 2.1.4 Build 3)  -->
  <defs>
    <style>
      .st0 {
        fill: #596bb2;
      }

      .st1 {
        fill: #101822;
      }
    </style>
  </defs>
  <path class="st1" d="M351.58,110.98h41.54c3.65,0,6.6,2.96,6.6,6.6v218.26h-53.94v-140.81l-54.54,65.19-28.83,34.46c-3.3,3.94-9.36,3.94-12.66,0l-28.83-34.46-54.55-65.2v140.82h-53.93V117.58c0-3.65,2.96-6.6,6.6-6.6h41.54c3.67,0,7.14,1.62,9.5,4.44l84.73,101.27c.66.79,1.87.79,2.53,0l84.73-101.27c2.35-2.81,5.83-4.44,9.5-4.44Z"/>
  <path class="st0" d="M399.73,335.84v15.39c0,27.36-22.18,49.53-49.53,49.53h-62.28c-1.96,0-3.86.7-5.35,1.97l-62.68,53.33c-5.36,4.56-13.6.75-13.6-6.29v-44.88c0-2.28-1.85-4.13-4.13-4.13h-40.18c-27.36,0-49.53-22.18-49.53-49.53v-15.39h53.93v6.03c0,7.29,5.91,13.21,13.21,13.21h153c7.29,0,13.21-5.91,13.21-13.21v-6.03h53.93Z"/>
</svg>