<?xml version="1.0" encoding="UTF-8"?>
<svg id="Layer_1" xmlns="http://www.w3.org/2000/svg" version="1.1" viewBox="0 0 512 512">
  <!-- Generator: Adobe Illustrator 30.5.1, SVG Export Plug-In . SVG Version: 2.1.4 Build 3)  -->
  <defs>
    <style>
      .st0 {
        fill: #fbfbfb;
      }

      .st1 {
        fill: #111824;
      }

      .st2 {
        fill: #5d6cb2;
      }
    </style>
  </defs>
  <rect class="st1" width="512" height="512"/>
  <g>
    <path class="st0" d="M351.53,111.37h41.56c3.65,0,6.61,2.96,6.61,6.61v218.33h-53.96v-140.86l-54.56,65.21-28.84,34.47c-3.3,3.95-9.37,3.95-12.67,0l-28.84-34.47-54.57-65.22v140.87h-53.95V117.97c0-3.65,2.96-6.61,6.61-6.61h41.56c3.67,0,7.15,1.63,9.5,4.44l84.76,101.3c.66.79,1.87.79,2.53,0l84.76-101.3c2.35-2.81,5.83-4.44,9.5-4.44Z"/>
    <path class="st2" d="M399.69,336.31v15.39c0,27.36-22.18,49.55-49.55,49.55h-62.3c-1.96,0-3.86.7-5.35,1.97l-62.7,53.34c-5.36,4.56-13.61.75-13.61-6.29v-44.89c0-2.28-1.85-4.13-4.13-4.13h-40.19c-27.36,0-49.55-22.18-49.55-49.55v-15.39h53.95v6.04c0,7.3,5.92,13.21,13.21,13.21h153.05c7.3,0,13.21-5.92,13.21-13.21v-6.04h53.95Z"/>
  </g>
</svg>